<?xml version="1.0" encoding="UTF-8"?>
<svg width="120px" height="34px" viewBox="0 0 120 34" version="1.1" xmlns="http://www.w3.org/2000/svg">
    <title>sigma-logo/full</title>
    <defs>
        <linearGradient x1="10.8998788%" y1="8.11886601%" x2="59.8880141%" y2="82.0716459%" id="linearGradient-1">
            <stop stop-color="#7C7C7B" offset="0%"></stop>
            <stop stop-color="#5B5B5A" offset="27%"></stop>
            <stop stop-color="#40403F" offset="56%"></stop>
            <stop stop-color="#30302F" offset="81%"></stop>
            <stop stop-color="#2A2A29" offset="100%"></stop>
        </linearGradient>
        <linearGradient x1="40.2782325%" y1="34.3992851%" x2="82.5498118%" y2="107.65443%" id="linearGradient-2">
            <stop stop-color="#9C1006" offset="0%"></stop>
            <stop stop-color="#951005" offset="8%"></stop>
            <stop stop-color="#7A0E02" offset="44%"></stop>
            <stop stop-color="#6A0C01" offset="76%"></stop>
            <stop stop-color="#640C00" offset="100%"></stop>
        </linearGradient>
    </defs>
    <g id="sigma-logo/full" stroke="none" stroke-width="1" fill="none" fill-rule="evenodd">
        <rect id="box" x="0" y="0" width="120" height="34"></rect>
        <g id="new" fill-rule="nonzero">
            <path d="M39.797235,28.7373272 C39.797235,27.7419355 40.5529954,27.2442396 41.5483871,27.2442396 C42.6728111,27.2442396 43.3917051,27.9815668 43.3917051,28.9032258 L42.6359447,28.9032258 C42.6359447,28.2580645 42.2857143,27.9262673 41.5483871,27.9262673 C40.8847926,27.9262673 40.5529954,28.202765 40.5529954,28.718894 C40.5529954,29.124424 40.8110599,29.4009217 41.6774194,29.6589862 C43.0046083,30.0460829 43.4101382,30.562212 43.4101382,31.3917051 C43.4101382,32.4423963 42.6543779,32.8479263 41.5852535,32.8479263 C40.3686636,32.8479263 39.6129032,32.2211982 39.6129032,31.1889401 L40.3686636,31.1889401 C40.3686636,31.8341014 40.8110599,32.1658986 41.5852535,32.1658986 C42.3041475,32.1658986 42.6543779,31.9078341 42.6543779,31.3917051 C42.6543779,30.7281106 41.9723502,30.4700461 41.4562212,30.3225806 C40.2396313,29.9907834 39.797235,29.4930876 39.797235,28.7373272 Z M44.0552995,30.8571429 L44.0552995,30.7465438 C44.0552995,29.5483871 44.5529954,28.7741935 45.640553,28.7741935 C46.7465438,28.7741935 47.2258065,29.5483871 47.2258065,30.7465438 L47.2258065,30.8571429 C47.2258065,31.9815668 46.8571429,32.8663594 45.640553,32.8663594 C44.4239631,32.8663594 44.0552995,31.9815668 44.0552995,30.8571429 Z M44.7373272,30.764977 L44.7373272,30.8940092 C44.7373272,31.8156682 44.9400922,32.2580645 45.640553,32.2580645 C46.3410138,32.2580645 46.5437788,31.8156682 46.5437788,30.8940092 L46.5437788,30.764977 C46.5437788,29.8248848 46.3225806,29.3824885 45.640553,29.3824885 C44.9400922,29.3824885 44.7373272,29.8064516 44.7373272,30.764977 L44.7373272,30.764977 Z M50.0092166,27.8894009 C49.8986175,27.8709677 49.7695853,27.8709677 49.6589862,27.8709677 C49.2165899,27.8709677 49.0506912,28.1105991 49.0506912,28.6082949 L49.0506912,28.8663594 L49.8801843,28.8663594 L49.8801843,29.4746544 L49.0506912,29.4746544 L49.0506912,32.8110599 L48.3686636,32.8110599 L48.3686636,29.4746544 L47.7419355,29.4746544 L47.7419355,28.8663594 L48.3870968,28.8663594 L48.3870968,28.6082949 C48.3870968,27.7603687 48.7741935,27.2626728 49.6221198,27.2626728 C49.7511521,27.2626728 49.8986175,27.281106 50.0276498,27.3179724 L50.0092166,27.8894009 Z M52.6267281,32.7373272 C52.4976959,32.7741935 52.3502304,32.7926267 52.2211982,32.7926267 C51.3732719,32.7926267 50.9861751,32.2949309 50.9861751,31.4470046 L50.9861751,29.4562212 L50.3410138,29.4562212 L50.3410138,28.8479263 L50.9861751,28.8479263 L50.9861751,27.7788018 L51.6682028,27.7788018 L51.6682028,28.8479263 L52.4976959,28.8479263 L52.4976959,29.4562212 L51.6682028,29.4562212 L51.6682028,31.4654378 C51.6682028,31.9447005 51.8341014,32.2211982 52.2764977,32.2211982 C52.3870968,32.2211982 52.516129,32.2211982 52.6267281,32.202765 L52.6267281,32.7373272 Z M56.6820276,31.7235023 L57.3271889,28.8479263 L58.0460829,28.8479263 L56.9585253,32.7926267 L56.40553,32.7926267 L55.5207373,29.9354839 L54.6543779,32.7926267 L54.1013825,32.7926267 L53.0322581,28.8479263 L53.7511521,28.8479263 L54.4147465,31.6682028 L55.2626728,28.8479263 L55.8156682,28.8479263 L56.6820276,31.7235023 Z M60.8663594,32.7926267 C60.8110599,32.6635945 60.7741935,32.516129 60.7741935,32.3686636 C60.4976959,32.6820276 60.1105991,32.8663594 59.6866359,32.8663594 C58.9861751,32.8663594 58.4147465,32.4239631 58.4147465,31.7050691 C58.4147465,30.8571429 59.0046083,30.3778802 60.1474654,30.3778802 L60.7557604,30.3778802 L60.7557604,30.1198157 C60.7557604,29.6221198 60.5714286,29.3824885 60.0184332,29.3824885 C59.5576037,29.3824885 59.2995392,29.6036866 59.2626728,29.9907834 L58.5806452,29.9907834 C58.6359447,29.2534562 59.1889401,28.7741935 60.0552995,28.7741935 C60.9769585,28.7741935 61.437788,29.2534562 61.437788,30.0645161 L61.437788,31.8525346 C61.4193548,32.1658986 61.4746544,32.4976959 61.6036866,32.7926267 L60.8663594,32.7926267 Z M60.7557604,31.59447 L60.7557604,30.9677419 L60.2764977,30.9677419 C59.4285714,30.9677419 59.078341,31.1889401 59.078341,31.6313364 C59.078341,32.0552995 59.3179724,32.2580645 59.7788018,32.2580645 C60.2211982,32.2396313 60.6082949,31.9815668 60.7557604,31.59447 L60.7557604,31.59447 Z M64.3317972,29.4193548 C64.202765,29.3824885 64.0552995,29.3640553 63.9078341,29.3640553 C63.4654378,29.3640553 63.1705069,29.7142857 63.0414747,30.1013825 L63.0414747,32.7741935 L62.359447,32.7741935 L62.359447,28.8294931 L63.0230415,28.8294931 L63.0230415,29.3271889 C63.2073733,28.9769585 63.5576037,28.7557604 63.9447005,28.7557604 C64.0737327,28.7557604 64.202765,28.7741935 64.3317972,28.8294931 L64.3317972,29.4193548 Z M67.8525346,31.6866359 C67.7050691,32.3870968 67.078341,32.8663594 66.359447,32.8663594 C65.1797235,32.8663594 64.6635945,32.0368664 64.6635945,30.9493088 L64.6635945,30.8202765 C64.6267281,29.6221198 65.3087558,28.7557604 66.2672811,28.7557604 C67.2995392,28.7557604 67.8525346,29.4930876 67.8525346,30.764977 L67.8525346,31.0967742 L65.3640553,31.0967742 C65.4009217,31.797235 65.6774194,32.2396313 66.359447,32.2396313 C66.7096774,32.2580645 67.0230415,32.0184332 67.1152074,31.6682028 L67.8525346,31.6866359 Z M65.3824885,30.5069124 L67.1520737,30.5069124 C67.1152074,29.7511521 66.8387097,29.3640553 66.2672811,29.3640553 C65.7327189,29.3824885 65.4746544,29.7880184 65.3824885,30.5069124 L65.3824885,30.5069124 Z" id="a3a661bd-b5bb-4355-82bb-ac4701c1e1bb" fill="#000000"></path>
            <path d="M39.7050691,23.483871 L50.3041475,23.483871 C52.5529954,23.483871 54.3963134,21.7511521 54.3963134,19.6313364 L54.3963134,18.9124424 C54.3963134,16.8294931 52.6635945,15.1336406 50.4516129,15.0599078 L50.3778802,15.0599078 L43.2073733,15.0599078 C42.5990783,15.078341 42.1013825,14.5990783 42.0829493,14.0092166 L42.0829493,13.3087558 C42.1013825,12.7004608 42.5990783,12.2396313 43.2073733,12.2396313 L53.5852535,12.2396313 L53.5852535,9.4562212 L43.2073733,9.4562212 C40.9585253,9.4562212 39.1152074,11.1889401 39.1152074,13.3087558 L39.1152074,14.0092166 C39.1152074,16.1290323 40.9585253,17.8617512 43.2073733,17.8617512 L50.3041475,17.8617512 C50.9124424,17.843318 51.4101382,18.3225806 51.4285714,18.9308756 L51.4285714,19.6497696 C51.4101382,20.2580645 50.9124424,20.718894 50.3041475,20.7004608 L39.7050691,20.7004608 L39.7050691,23.483871 L39.7050691,23.483871 Z M57.8986175,9.4562212 L60.8663594,9.4562212 L60.8663594,23.4654378 L57.8986175,23.4654378 L57.8986175,9.4562212 Z M99.4101382,23.4654378 L102.37788,23.4654378 L102.37788,13.3087558 C102.37788,11.1889401 100.534562,9.4562212 98.2857143,9.4562212 L83.5023041,9.4562212 L83.5023041,23.4654378 L86.4516129,23.4654378 L86.4516129,12.2580645 L91.3917051,12.2580645 L91.3917051,23.483871 L94.359447,23.483871 L94.359447,12.2580645 L98.2857143,12.2580645 C98.8940092,12.2396313 99.3917051,12.718894 99.4101382,13.3087558 L99.4101382,23.4654378 Z M119.870968,13.3087558 C119.870968,11.1889401 118.02765,9.4562212 115.778802,9.4562212 L106.359447,9.4562212 L106.359447,12.2396313 L115.760369,12.2396313 C116.368664,12.2211982 116.866359,12.7004608 116.884793,13.2903226 L116.884793,15.0414747 L109.400922,15.0414747 C107.152074,15.0414747 105.308756,16.7741935 105.308756,18.8940092 L105.308756,19.6129032 C105.308756,21.7327189 107.152074,23.4654378 109.400922,23.4654378 L119.834101,23.4654378 L119.870968,13.3087558 Z M116.884793,20.6820276 L109.419355,20.6820276 C108.81106,20.7004608 108.313364,20.2211982 108.294931,19.6313364 L108.294931,18.9124424 C108.313364,18.3041475 108.829493,17.843318 109.419355,17.843318 L116.903226,17.843318 L116.884793,20.6820276 Z M64.8663594,19.6313364 C64.8663594,21.7511521 66.7096774,23.483871 68.9585253,23.483871 L79.4101382,23.483871 L79.4101382,15.078341 L71.6129032,15.078341 L71.6129032,17.8617512 L76.4423963,17.8617512 L76.4423963,20.7004608 L68.9769585,20.7004608 C68.3686636,20.718894 67.8709677,20.2396313 67.8525346,19.6497696 L67.8525346,13.3087558 C67.8709677,12.7004608 68.3870968,12.2396313 68.9769585,12.2396313 L79.3917051,12.2396313 L79.3917051,9.4562212 L68.9585253,9.4562212 C66.6912442,9.4562212 64.8663594,11.1889401 64.8663594,13.3087558 L64.8663594,19.6313364 Z" id="a96bc2aa-0d1a-48b8-bdeb-1bf79a5d1789" fill="#000000"></path>
            <g id="a9402fda-c1c6-4148-9afa-6dac1113648c">
                <path d="M32.8663594,16.4239631 C32.8663594,14.0829493 28.0552995,12.1105991 21.4193548,11.4470046 L21.4193548,11.4470046 C21.5852535,13.0138249 21.6589862,14.6912442 21.6589862,16.4239631 C21.6589862,18.0829493 21.5852535,19.7603687 21.4193548,21.4193548 C28.0552995,20.7373272 32.8663594,18.764977 32.8663594,16.4239631 Z" id="Path" fill="url(#linearGradient-1)"></path>
                <path d="M16.4423963,21.6589862 C18.1013825,21.6589862 19.7788018,21.5852535 21.437788,21.4193548 C21.6036866,19.7603687 21.6774194,18.1013825 21.6774194,16.4239631 C21.6774194,14.6912442 21.5852535,13.0138249 21.437788,11.4470046 L11.4654378,21.4193548 C13.1059908,21.5852535 14.764977,21.6774194 16.4423963,21.6589862 Z" id="Path" fill="url(#linearGradient-2)"></path>
                <path d="M16.4423963,11.2073733 C18.1013825,11.2073733 19.7788018,11.281106 21.437788,11.4470046 C20.7557604,4.81105991 18.764977,0 16.4423963,0 C14.1198157,0 12.1290323,4.81105991 11.4654378,11.4470046 C13.1059908,11.281106 14.764977,11.2073733 16.4423963,11.2073733" id="Path" fill="#E30613"></path>
                <path d="M16.4423963,21.6589862 C14.7834101,21.6589862 13.124424,21.5852535 11.4654378,21.4193548 C12.1474654,28.0552995 14.1198157,32.8663594 16.4423963,32.8663594 C18.764977,32.8663594 20.7557604,28.0552995 21.437788,21.4193548 C19.7603687,21.5852535 18.1013825,21.6589862 16.4423963,21.6589862" id="Path" fill="#E30613"></path>
                <path d="M11.2073733,16.4239631 C11.2073733,14.764977 11.281106,13.1059908 11.4470046,11.4470046 C4.81105991,12.1290323 0,14.1013825 0,16.4239631 C0,18.7465438 4.81105991,20.7373272 11.4470046,21.4193548 C11.281106,19.7603687 11.2073733,18.1013825 11.2073733,16.4239631" id="Path" fill="#E30613"></path>
                <path d="M11.4470046,11.4470046 C11.1152074,14.764977 11.1152074,18.1013825 11.4470046,21.4193548 L21.4193548,11.4470046 C18.1013825,11.1152074 14.764977,11.1152074 11.4470046,11.4470046" id="Path" fill="#B70E0C"></path>
            </g>
        </g>
    </g>
</svg>